<svg width="36" height="36" viewBox="0 0 36 36" fill="none" xmlns="http://www.w3.org/2000/svg">
<rect width="36" height="36" rx="8" fill="#5CCD70" fill-opacity="0.2"/>
<g clip-path="url(#clip0_713_2156)">
<path d="M19.666 9.66699H16.3327C13.6 9.66699 12.2336 9.66699 11.2651 10.3452C10.9068 10.5961 10.5951 10.9077 10.3442 11.2661C9.66602 12.2346 9.66602 13.601 9.66602 16.3337C9.66602 19.0664 9.66602 20.4327 10.3442 21.4012C10.5951 21.7596 10.9068 22.0712 11.2651 22.3221C12.2336 23.0003 13.6 23.0003 16.3327 23.0003H19.666C22.3987 23.0003 23.7651 23.0003 24.7336 22.3221C25.0919 22.0712 25.4036 21.7596 25.6545 21.4012C26.3327 20.4327 26.3327 19.0664 26.3327 16.3337C26.3327 13.601 26.3327 12.2346 25.6545 11.2661C25.4036 10.9077 25.0919 10.5961 24.7336 10.3452C23.7651 9.66699 22.3987 9.66699 19.666 9.66699Z" stroke="#5CCD70" stroke-width="1.5" stroke-linecap="round"/>
<path d="M17.166 20.5H18.8327" stroke="#5CCD70" stroke-width="1.5" stroke-linecap="round" stroke-linejoin="round"/>
<path d="M20.0827 26.3333L19.8198 25.9843C19.2271 25.1974 19.0801 23.9953 19.455 23M15.916 26.3333L16.1789 25.9843C16.7716 25.1974 16.9186 23.9953 16.5437 23" stroke="#5CCD70" stroke-width="1.25" stroke-linecap="round"/>
<path d="M13.832 26.334H22.1654" stroke="#5CCD70" stroke-width="1.5" stroke-linecap="round"/>
</g>
<defs>
<clipPath id="clip0_713_2156">
<rect width="20" height="20" fill="white" transform="translate(8 8)"/>
</clipPath>
</defs>
</svg>
