<svg width="36" height="36" viewBox="0 0 36 36" fill="none" xmlns="http://www.w3.org/2000/svg">
<rect width="36" height="36" rx="8" fill="#EAD7FF"/>
<path d="M18.0008 26.5C11.363 26.5 5.18143 28.4883 0 31.9117V36H36V31.9106C30.8189 28.4879 24.638 26.5 18.0008 26.5Z" fill="#53288C"/>
<path fill-rule="evenodd" clip-rule="evenodd" d="M17.9531 11.2687C15.7716 11.2687 14.0031 13.0372 14.0031 15.2188C14.0031 17.4003 15.7716 19.1688 17.9531 19.1688C20.1347 19.1688 21.9032 17.4003 21.9032 15.2188C21.9032 13.0372 20.1347 11.2687 17.9531 11.2687ZM9.52148 15.2188C9.52148 10.5621 13.2965 6.78711 17.9531 6.78711C22.6098 6.78711 26.3848 10.5621 26.3848 15.2188C26.3848 19.8754 22.6098 23.6504 17.9531 23.6504C13.2965 23.6504 9.52148 19.8754 9.52148 15.2188Z" fill="#AF61F2"/>
</svg>
