<svg width="36" height="36" viewBox="0 0 36 36" fill="none" xmlns="http://www.w3.org/2000/svg">
<rect width="36" height="36" rx="8" fill="#98A2B3" fill-opacity="0.1"/>
<rect x="0.5" y="0.5" width="35" height="35" rx="7.5" stroke="#98A2B3" stroke-opacity="0.2"/>
<path d="M12.2986 17.5762C12.2374 18.7395 12.3078 19.9778 11.2684 20.7573C10.7847 21.1201 10.5 21.6895 10.5 22.2942C10.5 23.126 11.1515 23.8337 12 23.8337H24C24.8485 23.8337 25.5 23.126 25.5 22.2942C25.5 21.6895 25.2153 21.1201 24.7316 20.7573C23.6922 19.9778 23.7626 18.7395 23.7014 17.5762C23.5418 14.5438 21.0365 12.167 18 12.167C14.9635 12.167 12.4582 14.5438 12.2986 17.5762Z" stroke="#AEB3CB" stroke-width="1.5" stroke-linecap="round" stroke-linejoin="round"/>
<path d="M16.75 10.6045C16.75 11.2948 17.3096 12.167 18 12.167C18.6904 12.167 19.25 11.2948 19.25 10.6045C19.25 9.91414 18.6904 9.66699 18 9.66699C17.3096 9.66699 16.75 9.91414 16.75 10.6045Z" stroke="#AEB3CB" stroke-width="1.5"/>
<path d="M20.5 23.834C20.5 25.2147 19.3807 26.334 18 26.334C16.6193 26.334 15.5 25.2147 15.5 23.834" stroke="#AEB3CB" stroke-width="1.5" stroke-linecap="round" stroke-linejoin="round"/>
</svg>
